<svg id="visual" viewBox="0 0 540 960" width="540" height="960" xmlns="http://www.w3.org/2000/svg" xmlns:xlink="http://www.w3.org/1999/xlink" version="1.1"><rect x="0" y="0" width="540" height="960" fill="#1d1e23"></rect><path d="M0 452L15 456.2C30 460.3 60 468.7 90 463.8C120 459 150 441 180 436.7C210 432.3 240 441.7 270 441.7C300 441.7 330 432.3 360 436.5C390 440.7 420 458.3 450 463.8C480 469.3 510 462.7 525 459.3L540 456L540 0L525 0C510 0 480 0 450 0C420 0 390 0 360 0C330 0 300 0 270 0C240 0 210 0 180 0C150 0 120 0 90 0C60 0 30 0 15 0L0 0Z" fill="#1d1e23"></path><path d="M0 354L15 353.3C30 352.7 60 351.3 90 354.5C120 357.7 150 365.3 180 367.3C210 369.3 240 365.7 270 360.7C300 355.7 330 349.3 360 353C390 356.7 420 370.3 450 377.5C480 384.7 510 385.3 525 385.7L540 386L540 0L525 0C510 0 480 0 450 0C420 0 390 0 360 0C330 0 300 0 270 0C240 0 210 0 180 0C150 0 120 0 90 0C60 0 30 0 15 0L0 0Z" fill="#2d3143"></path><path d="M0 320L15 316C30 312 60 304 90 296.2C120 288.3 150 280.7 180 286.7C210 292.7 240 312.3 270 315.2C300 318 330 304 360 294.5C390 285 420 280 450 284C480 288 510 301 525 307.5L540 314L540 0L525 0C510 0 480 0 450 0C420 0 390 0 360 0C330 0 300 0 270 0C240 0 210 0 180 0C150 0 120 0 90 0C60 0 30 0 15 0L0 0Z" fill="#3e4666"></path><path d="M0 210L15 210.5C30 211 60 212 90 212.2C120 212.3 150 211.7 180 209.7C210 207.7 240 204.3 270 204.3C300 204.3 330 207.7 360 208.2C390 208.7 420 206.3 450 205.7C480 205 510 206 525 206.5L540 207L540 0L525 0C510 0 480 0 450 0C420 0 390 0 360 0C330 0 300 0 270 0C240 0 210 0 180 0C150 0 120 0 90 0C60 0 30 0 15 0L0 0Z" fill="#4f5c8b"></path><path d="M0 143L15 149.5C30 156 60 169 90 171.7C120 174.3 150 166.7 180 165C210 163.3 240 167.7 270 163C300 158.3 330 144.7 360 138.8C390 133 420 135 450 138.8C480 142.7 510 148.3 525 151.2L540 154L540 0L525 0C510 0 480 0 450 0C420 0 390 0 360 0C330 0 300 0 270 0C240 0 210 0 180 0C150 0 120 0 90 0C60 0 30 0 15 0L0 0Z" fill="#6073b2"></path><path d="M0 59L15 63.7C30 68.3 60 77.7 90 82.7C120 87.7 150 88.3 180 89.3C210 90.3 240 91.7 270 92.3C300 93 330 93 360 90.3C390 87.7 420 82.3 450 76.7C480 71 510 65 525 62L540 59L540 0L525 0C510 0 480 0 450 0C420 0 390 0 360 0C330 0 300 0 270 0C240 0 210 0 180 0C150 0 120 0 90 0C60 0 30 0 15 0L0 0Z" fill="#738ada"></path></svg>