<svg id="visual" viewBox="0 0 960 540" width="960" height="540" xmlns="http://www.w3.org/2000/svg" xmlns:xlink="http://www.w3.org/1999/xlink" version="1.1"><rect x="0" y="0" width="960" height="540" fill="#1d1e23"></rect><path d="M0 292L14.5 288.3C29 284.7 58 277.3 87.2 274C116.3 270.7 145.7 271.3 174.8 272.3C204 273.3 233 274.7 262 278C291 281.3 320 286.7 349 286.5C378 286.3 407 280.7 436.2 281C465.3 281.3 494.7 287.7 523.8 289.8C553 292 582 290 611 291.8C640 293.7 669 299.3 698 300C727 300.7 756 296.3 785.2 295.3C814.3 294.3 843.7 296.7 872.8 298.7C902 300.7 931 302.3 945.5 303.2L960 304L960 541L945.5 541C931 541 902 541 872.8 541C843.7 541 814.3 541 785.2 541C756 541 727 541 698 541C669 541 640 541 611 541C582 541 553 541 523.8 541C494.7 541 465.3 541 436.2 541C407 541 378 541 349 541C320 541 291 541 262 541C233 541 204 541 174.8 541C145.7 541 116.3 541 87.2 541C58 541 29 541 14.5 541L0 541Z" fill="#1d1e23"></path><path d="M0 345L14.5 342.7C29 340.3 58 335.7 87.2 329.7C116.3 323.7 145.7 316.3 174.8 315.5C204 314.7 233 320.3 262 320.8C291 321.3 320 316.7 349 317.5C378 318.3 407 324.7 436.2 324.2C465.3 323.7 494.7 316.3 523.8 316.2C553 316 582 323 611 326.5C640 330 669 330 698 331.8C727 333.7 756 337.3 785.2 335.3C814.3 333.3 843.7 325.7 872.8 325.7C902 325.7 931 333.3 945.5 337.2L960 341L960 541L945.5 541C931 541 902 541 872.8 541C843.7 541 814.3 541 785.2 541C756 541 727 541 698 541C669 541 640 541 611 541C582 541 553 541 523.8 541C494.7 541 465.3 541 436.2 541C407 541 378 541 349 541C320 541 291 541 262 541C233 541 204 541 174.8 541C145.7 541 116.3 541 87.2 541C58 541 29 541 14.5 541L0 541Z" fill="#2d3143"></path><path d="M0 360L14.5 359.2C29 358.3 58 356.7 87.2 358.3C116.3 360 145.7 365 174.8 368.8C204 372.7 233 375.3 262 375.7C291 376 320 374 349 374.5C378 375 407 378 436.2 378.7C465.3 379.3 494.7 377.7 523.8 372.7C553 367.7 582 359.3 611 355.7C640 352 669 353 698 356.5C727 360 756 366 785.2 368.2C814.3 370.3 843.7 368.7 872.8 367.3C902 366 931 365 945.5 364.5L960 364L960 541L945.5 541C931 541 902 541 872.8 541C843.7 541 814.3 541 785.2 541C756 541 727 541 698 541C669 541 640 541 611 541C582 541 553 541 523.8 541C494.7 541 465.3 541 436.2 541C407 541 378 541 349 541C320 541 291 541 262 541C233 541 204 541 174.8 541C145.7 541 116.3 541 87.2 541C58 541 29 541 14.5 541L0 541Z" fill="#3e4666"></path><path d="M0 414L14.5 413.5C29 413 58 412 87.2 409.8C116.3 407.7 145.7 404.3 174.8 402.2C204 400 233 399 262 399.7C291 400.3 320 402.7 349 404C378 405.3 407 405.7 436.2 404C465.3 402.3 494.7 398.7 523.8 399.5C553 400.3 582 405.7 611 406.3C640 407 669 403 698 405.5C727 408 756 417 785.2 421C814.3 425 843.7 424 872.8 423C902 422 931 421 945.5 420.5L960 420L960 541L945.5 541C931 541 902 541 872.8 541C843.7 541 814.3 541 785.2 541C756 541 727 541 698 541C669 541 640 541 611 541C582 541 553 541 523.8 541C494.7 541 465.3 541 436.2 541C407 541 378 541 349 541C320 541 291 541 262 541C233 541 204 541 174.8 541C145.7 541 116.3 541 87.2 541C58 541 29 541 14.5 541L0 541Z" fill="#4f5c8b"></path><path d="M0 449L14.5 449.8C29 450.7 58 452.3 87.2 452.3C116.3 452.3 145.7 450.7 174.8 448.7C204 446.7 233 444.3 262 446.7C291 449 320 456 349 456.2C378 456.3 407 449.7 436.2 448.7C465.3 447.7 494.7 452.3 523.8 455.5C553 458.7 582 460.3 611 457.2C640 454 669 446 698 446.5C727 447 756 456 785.2 459.8C814.3 463.7 843.7 462.3 872.8 460.7C902 459 931 457 945.5 456L960 455L960 541L945.5 541C931 541 902 541 872.8 541C843.7 541 814.3 541 785.2 541C756 541 727 541 698 541C669 541 640 541 611 541C582 541 553 541 523.8 541C494.7 541 465.3 541 436.2 541C407 541 378 541 349 541C320 541 291 541 262 541C233 541 204 541 174.8 541C145.7 541 116.3 541 87.2 541C58 541 29 541 14.5 541L0 541Z" fill="#6073b2"></path><path d="M0 479L14.5 479.5C29 480 58 481 87.2 482.3C116.3 483.7 145.7 485.3 174.8 487.5C204 489.7 233 492.3 262 491C291 489.7 320 484.3 349 481.7C378 479 407 479 436.2 483.3C465.3 487.7 494.7 496.3 523.8 497.8C553 499.3 582 493.7 611 492.3C640 491 669 494 698 494C727 494 756 491 785.2 488.8C814.3 486.7 843.7 485.3 872.8 488.3C902 491.3 931 498.7 945.5 502.3L960 506L960 541L945.5 541C931 541 902 541 872.8 541C843.7 541 814.3 541 785.2 541C756 541 727 541 698 541C669 541 640 541 611 541C582 541 553 541 523.8 541C494.7 541 465.3 541 436.2 541C407 541 378 541 349 541C320 541 291 541 262 541C233 541 204 541 174.8 541C145.7 541 116.3 541 87.2 541C58 541 29 541 14.5 541L0 541Z" fill="#738ada"></path></svg>