<svg id="visual" viewBox="0 0 960 540" width="960" height="540" xmlns="http://www.w3.org/2000/svg" xmlns:xlink="http://www.w3.org/1999/xlink" version="1.1"><rect x="0" y="0" width="960" height="540" fill="#1d1e23"></rect><path d="M0 269L14.5 264.5C29 260 58 251 87.2 246.3C116.3 241.7 145.7 241.3 174.8 242.7C204 244 233 247 262 246.5C291 246 320 242 349 240C378 238 407 238 436.2 239.5C465.3 241 494.7 244 523.8 248.2C553 252.3 582 257.7 611 259.7C640 261.7 669 260.3 698 260C727 259.7 756 260.3 785.2 256C814.3 251.7 843.7 242.3 872.8 240.7C902 239 931 245 945.5 248L960 251L960 0L945.5 0C931 0 902 0 872.8 0C843.7 0 814.3 0 785.2 0C756 0 727 0 698 0C669 0 640 0 611 0C582 0 553 0 523.8 0C494.7 0 465.3 0 436.2 0C407 0 378 0 349 0C320 0 291 0 262 0C233 0 204 0 174.8 0C145.7 0 116.3 0 87.2 0C58 0 29 0 14.5 0L0 0Z" fill="#1d1e23"></path><path d="M0 208L14.5 208.8C29 209.7 58 211.3 87.2 212.8C116.3 214.3 145.7 215.7 174.8 213.8C204 212 233 207 262 208.2C291 209.3 320 216.7 349 217.7C378 218.7 407 213.3 436.2 211.7C465.3 210 494.7 212 523.8 214.3C553 216.7 582 219.3 611 217.5C640 215.7 669 209.3 698 210.7C727 212 756 221 785.2 220.7C814.3 220.3 843.7 210.7 872.8 205.8C902 201 931 201 945.5 201L960 201L960 0L945.5 0C931 0 902 0 872.8 0C843.7 0 814.3 0 785.2 0C756 0 727 0 698 0C669 0 640 0 611 0C582 0 553 0 523.8 0C494.7 0 465.3 0 436.2 0C407 0 378 0 349 0C320 0 291 0 262 0C233 0 204 0 174.8 0C145.7 0 116.3 0 87.2 0C58 0 29 0 14.5 0L0 0Z" fill="#2d3143"></path><path d="M0 159L14.5 159.5C29 160 58 161 87.2 165C116.3 169 145.7 176 174.8 176.8C204 177.7 233 172.3 262 171.3C291 170.3 320 173.7 349 176.5C378 179.3 407 181.7 436.2 182.2C465.3 182.7 494.7 181.3 523.8 181.8C553 182.3 582 184.7 611 181.7C640 178.7 669 170.3 698 169.2C727 168 756 174 785.2 173.8C814.3 173.7 843.7 167.3 872.8 167.8C902 168.3 931 175.7 945.5 179.3L960 183L960 0L945.5 0C931 0 902 0 872.8 0C843.7 0 814.3 0 785.2 0C756 0 727 0 698 0C669 0 640 0 611 0C582 0 553 0 523.8 0C494.7 0 465.3 0 436.2 0C407 0 378 0 349 0C320 0 291 0 262 0C233 0 204 0 174.8 0C145.7 0 116.3 0 87.2 0C58 0 29 0 14.5 0L0 0Z" fill="#3e4666"></path><path d="M0 125L14.5 123.8C29 122.7 58 120.3 87.2 119.3C116.3 118.3 145.7 118.7 174.8 122C204 125.3 233 131.7 262 132.7C291 133.7 320 129.3 349 126.3C378 123.3 407 121.7 436.2 121.7C465.3 121.7 494.7 123.3 523.8 124.5C553 125.7 582 126.3 611 129.5C640 132.7 669 138.3 698 140.2C727 142 756 140 785.2 137.2C814.3 134.3 843.7 130.7 872.8 128.5C902 126.3 931 125.7 945.5 125.3L960 125L960 0L945.5 0C931 0 902 0 872.8 0C843.7 0 814.3 0 785.2 0C756 0 727 0 698 0C669 0 640 0 611 0C582 0 553 0 523.8 0C494.7 0 465.3 0 436.2 0C407 0 378 0 349 0C320 0 291 0 262 0C233 0 204 0 174.8 0C145.7 0 116.3 0 87.2 0C58 0 29 0 14.5 0L0 0Z" fill="#4f5c8b"></path><path d="M0 94L14.5 94.8C29 95.7 58 97.3 87.2 94.5C116.3 91.7 145.7 84.3 174.8 83.2C204 82 233 87 262 90.5C291 94 320 96 349 94.7C378 93.3 407 88.7 436.2 87C465.3 85.3 494.7 86.7 523.8 87.5C553 88.3 582 88.7 611 88.2C640 87.7 669 86.3 698 88.2C727 90 756 95 785.2 93.2C814.3 91.3 843.7 82.7 872.8 81.7C902 80.7 931 87.3 945.5 90.7L960 94L960 0L945.5 0C931 0 902 0 872.8 0C843.7 0 814.3 0 785.2 0C756 0 727 0 698 0C669 0 640 0 611 0C582 0 553 0 523.8 0C494.7 0 465.3 0 436.2 0C407 0 378 0 349 0C320 0 291 0 262 0C233 0 204 0 174.8 0C145.7 0 116.3 0 87.2 0C58 0 29 0 14.5 0L0 0Z" fill="#6073b2"></path><path d="M0 38L14.5 39.7C29 41.3 58 44.7 87.2 47.5C116.3 50.3 145.7 52.7 174.8 51C204 49.3 233 43.7 262 41.3C291 39 320 40 349 43C378 46 407 51 436.2 50.7C465.3 50.3 494.7 44.7 523.8 42C553 39.3 582 39.7 611 41.8C640 44 669 48 698 48.5C727 49 756 46 785.2 44C814.3 42 843.7 41 872.8 41.8C902 42.7 931 45.3 945.5 46.7L960 48L960 0L945.5 0C931 0 902 0 872.8 0C843.7 0 814.3 0 785.2 0C756 0 727 0 698 0C669 0 640 0 611 0C582 0 553 0 523.8 0C494.7 0 465.3 0 436.2 0C407 0 378 0 349 0C320 0 291 0 262 0C233 0 204 0 174.8 0C145.7 0 116.3 0 87.2 0C58 0 29 0 14.5 0L0 0Z" fill="#738ada"></path></svg>