<svg id="visual" viewBox="0 0 540 960" width="540" height="960" xmlns="http://www.w3.org/2000/svg" xmlns:xlink="http://www.w3.org/1999/xlink" version="1.1"><rect x="0" y="0" width="540" height="960" fill="#1d1e23"></rect><path d="M0 513L15 514.7C30 516.3 60 519.7 90 520.8C120 522 150 521 180 519C210 517 240 514 270 509.5C300 505 330 499 360 503C390 507 420 521 450 526.5C480 532 510 529 525 527.5L540 526L540 961L525 961C510 961 480 961 450 961C420 961 390 961 360 961C330 961 300 961 270 961C240 961 210 961 180 961C150 961 120 961 90 961C60 961 30 961 15 961L0 961Z" fill="#1d1e23"></path><path d="M0 604L15 604C30 604 60 604 90 602.3C120 600.7 150 597.3 180 592.8C210 588.3 240 582.7 270 586C300 589.3 330 601.7 360 608C390 614.3 420 614.7 450 607.7C480 600.7 510 586.3 525 579.2L540 572L540 961L525 961C510 961 480 961 450 961C420 961 390 961 360 961C330 961 300 961 270 961C240 961 210 961 180 961C150 961 120 961 90 961C60 961 30 961 15 961L0 961Z" fill="#2d3143"></path><path d="M0 653L15 652.8C30 652.7 60 652.3 90 653.7C120 655 150 658 180 663.3C210 668.7 240 676.3 270 676C300 675.7 330 667.3 360 666.2C390 665 420 671 450 666.7C480 662.3 510 647.7 525 640.3L540 633L540 961L525 961C510 961 480 961 450 961C420 961 390 961 360 961C330 961 300 961 270 961C240 961 210 961 180 961C150 961 120 961 90 961C60 961 30 961 15 961L0 961Z" fill="#3e4666"></path><path d="M0 725L15 728.5C30 732 60 739 90 739.2C120 739.3 150 732.7 180 733C210 733.3 240 740.7 270 737.8C300 735 330 722 360 718.5C390 715 420 721 450 725.3C480 729.7 510 732.3 525 733.7L540 735L540 961L525 961C510 961 480 961 450 961C420 961 390 961 360 961C330 961 300 961 270 961C240 961 210 961 180 961C150 961 120 961 90 961C60 961 30 961 15 961L0 961Z" fill="#4f5c8b"></path><path d="M0 818L15 811.8C30 805.7 60 793.3 90 794.8C120 796.3 150 811.7 180 819C210 826.3 240 825.7 270 823.8C300 822 330 819 360 818C390 817 420 818 450 816C480 814 510 809 525 806.5L540 804L540 961L525 961C510 961 480 961 450 961C420 961 390 961 360 961C330 961 300 961 270 961C240 961 210 961 180 961C150 961 120 961 90 961C60 961 30 961 15 961L0 961Z" fill="#6073b2"></path><path d="M0 890L15 891.7C30 893.3 60 896.7 90 896.8C120 897 150 894 180 887.2C210 880.3 240 869.7 270 867.8C300 866 330 873 360 872.5C390 872 420 864 450 864.3C480 864.7 510 873.3 525 877.7L540 882L540 961L525 961C510 961 480 961 450 961C420 961 390 961 360 961C330 961 300 961 270 961C240 961 210 961 180 961C150 961 120 961 90 961C60 961 30 961 15 961L0 961Z" fill="#738ada"></path></svg>